<?xml version="1.0" standalone="no"?>
<!DOCTYPE svg PUBLIC "-//W3C//DTD SVG 20010904//EN"
 "http://www.w3.org/TR/2001/REC-SVG-20010904/DTD/svg10.dtd">
<svg version="1.0" xmlns="http://www.w3.org/2000/svg"
 width="1000.000000pt" height="1000.000000pt" viewBox="0 0 1000.000000 1000.000000"
 preserveAspectRatio="xMidYMid meet">
<metadata>
Created by potrace 1.14, written by Peter Selinger 2001-2017
</metadata>
<g transform="translate(0.000000,1000.000000) scale(0.100000,-0.100000)"
fill="#000000" stroke="none">
<path d="M3160 9031 c-64 -13 -129 -52 -180 -109 -41 -46 -125 -157 -254 -337
-51 -70 -147 -202 -153 -210 -39 -48 -195 -270 -216 -305 -36 -62 -65 -178
-73 -285 -7 -107 -7 -453 0 -920 3 -187 8 -515 11 -730 3 -214 7 -572 10 -795
10 -680 14 -988 19 -1410 29 -2192 28 -2159 70 -2356 10 -46 35 -92 66 -118
59 -49 160 -32 335 56 80 40 329 190 333 200 2 4 8 8 13 8 6 0 40 19 77 43 37
24 96 61 132 83 36 21 67 42 68 47 2 4 7 7 12 7 6 0 279 164 350 210 8 5 33
19 55 31 22 12 42 24 45 28 6 7 38 28 65 41 11 5 37 20 57 32 103 64 353 214
362 217 6 2 13 7 16 11 5 6 28 19 158 92 34 19 61 28 75 24 21 -5 65 -39 172
-131 28 -24 60 -52 71 -62 12 -10 45 -39 75 -65 30 -26 65 -56 79 -68 14 -12
50 -43 80 -70 30 -26 107 -92 170 -146 63 -54 117 -101 120 -104 3 -3 39 -34
80 -70 41 -35 82 -71 91 -80 9 -8 42 -37 74 -65 89 -76 239 -208 245 -214 3
-3 23 -21 45 -40 22 -19 74 -65 115 -102 41 -37 84 -76 96 -86 24 -21 162
-143 178 -158 6 -5 50 -43 98 -83 194 -161 304 -225 388 -225 60 0 105 29 330
214 97 79 196 160 220 179 353 284 373 306 387 443 10 96 3 427 -11 502 -2 11
-7 71 -11 133 -3 62 -8 123 -10 135 -2 12 -6 63 -10 112 -3 50 -8 113 -10 140
-2 28 -7 84 -10 125 -3 41 -8 98 -10 125 -3 28 -7 82 -10 120 -3 39 -7 93 -10
120 -2 28 -7 79 -10 115 -14 178 -25 315 -30 370 -2 25 -6 81 -10 125 -3 44
-8 103 -10 130 -3 28 -7 82 -10 120 -12 168 -16 213 -20 255 -3 25 -8 77 -10
115 -3 39 -7 93 -10 122 -2 28 -7 82 -10 120 -3 37 -7 91 -10 118 -2 28 -7 88
-11 135 -3 47 -7 99 -9 115 -2 28 -14 179 -20 255 -6 76 -17 207 -21 250 -2
25 -6 77 -9 115 -3 39 -7 95 -10 125 -3 30 -7 89 -10 131 -3 42 -8 98 -10 125
-3 27 -7 76 -10 109 -7 99 -15 187 -20 245 -3 30 -7 84 -10 120 -7 113 -15
214 -21 258 -2 24 -7 76 -10 115 -5 87 -13 188 -19 242 -2 22 -6 80 -9 128 -4
49 -8 103 -11 120 -2 18 -7 68 -10 112 -2 44 -6 89 -9 100 -2 11 -7 54 -10 95
-4 41 -9 82 -11 90 -2 8 -6 33 -10 55 -21 145 -74 265 -146 329 -102 92 -237
142 -614 227 -99 22 -187 42 -195 44 -8 2 -55 12 -105 23 -49 11 -151 33 -225
50 -74 17 -146 33 -160 35 -31 6 -193 43 -280 64 -36 9 -74 17 -85 18 -11 2
-58 12 -105 23 -47 11 -130 30 -185 42 -110 24 -111 24 -175 39 -25 5 -56 12
-70 15 -14 2 -56 12 -95 21 -38 9 -79 19 -90 21 -11 2 -101 22 -200 44 -99 22
-189 42 -200 45 -87 17 -220 47 -265 59 -30 7 -75 17 -100 22 -50 9 -59 11
-62 13 -2 2 -12 4 -23 6 -11 2 -72 15 -135 29 -122 26 -173 37 -205 41 -11 2
-20 4 -20 5 0 15 -284 32 -345 21z"/>
</g>
</svg>
